<?xml version="1.0" encoding="UTF-8"?>
<svg id="Layer_1" data-name="Layer 1" xmlns="http://www.w3.org/2000/svg" viewBox="0 0 23.14 16.2">
  <defs>
    <style>
      .cls-1 {
        fill: #30bcb5;
      }
    </style>
  </defs>
  <path class="cls-1" d="M17.93,5.79h-2.07C14.84,2.35,11.68,0,8.1,0,3.63,0,0,3.63,0,8.1s3.63,8.1,8.1,8.1h9.83c2.88,0,5.21-2.33,5.21-5.21s-2.33-5.2-5.21-5.2ZM10.17,13.36c-.72.72-1.7,1.13-2.72,1.13v-3.85h3.85c0,1.02-.41,2-1.13,2.72ZM10.17,8.97c-.72.72-1.7,1.13-2.72,1.13v-3.85h3.85c0,1.02-.41,2-1.13,2.72ZM12.97,13.36c-.72-.72-1.13-1.7-1.13-2.72,1.02,0,2,.41,2.72,1.13s1.13,1.7,1.13,2.72c-1.02,0-2-.41-2.72-1.13ZM13.76,10.1h-1.92v-3.85h1.92c1.07,0,1.93.86,1.93,1.93s-.86,1.92-1.93,1.92Z"/>
</svg>