<?xml version="1.0" encoding="UTF-8"?>
<svg xmlns="http://www.w3.org/2000/svg" viewBox="0 0 297.83 33.49">
  <defs>
    <style>
      .cls-1 {
        fill-rule: evenodd;
      }

      .cls-1, .cls-2 {
        fill: #30bcb5;
      }
    </style>
  </defs>
  <g id="Layer_2" data-name="Layer 2">
    <g id="Components">
      <path id="_960a0e6f-3679-4bc0-80c2-dbcfa6e1de9b_1" data-name=" 960a0e6f-3679-4bc0-80c2-dbcfa6e1de9b 1" class="cls-1" d="M95.65,22.73c1.02,0,1.92-.24,2.7-.73.78-.49,1.39-1.17,1.85-2.04.45-.87.68-1.85.68-2.95s-.23-2.07-.68-2.93c-.45-.86-1.07-1.54-1.85-2.04-.78-.5-1.68-.75-2.7-.75s-1.94.25-2.74.75c-.8.5-1.43,1.18-1.88,2.04-.45.86-.68,1.84-.68,2.93s.23,2.08.68,2.95c.45.87,1.08,1.55,1.88,2.04.8.49,1.71.73,2.74.73ZM95.65,26.91c-1.86,0-3.55-.43-5.08-1.29-1.52-.86-2.73-2.03-3.63-3.52-.89-1.49-1.34-3.19-1.34-5.09s.45-3.6,1.34-5.09c.9-1.49,2.1-2.66,3.61-3.52s3.21-1.29,5.09-1.29,3.55.43,5.06,1.29c1.51.86,2.72,2.03,3.61,3.52.89,1.49,1.34,3.19,1.34,5.09s-.45,3.61-1.36,5.11-2.12,2.67-3.63,3.52c-1.51.85-3.19,1.27-5.02,1.27ZM77.58,26.5h4.57V7.52h-4.57v18.98ZM77.58,5.39h4.57V.51h-4.57s0,4.88,0,4.88ZM65.1,26.5v-14.9h-3.28v-4.08h3.28V3.19h4.57v4.33h4.36v4.08h-4.36v10.85h4.43v4.05h-9ZM47.27,21.3c0,.65.24,1.17.73,1.55.49.38,1.12.58,1.88.58,1.44,0,2.61-.45,3.51-1.36.89-.91,1.34-2.01,1.34-3.31v-.77l-4.78.8c-1.79.35-2.69,1.19-2.69,2.51h0ZM49.05,26.91c-1.98,0-3.56-.49-4.74-1.47s-1.78-2.3-1.78-3.98c0-1.58.53-2.9,1.6-3.94,1.07-1.05,2.72-1.76,4.95-2.13l5.65-.91v-2.9h-10.22v-4.08h14.79v18.98h-4.33v-2.02c-1.49,1.63-3.46,2.44-5.93,2.44h0ZM34.5,26.5h4.57V.09h-4.57v26.41ZM21.8,10.87c-1.14,0-2.12.34-2.95,1.03-.83.69-1.37,1.66-1.62,2.91h8.93c-.09-1.16-.54-2.11-1.34-2.84-.8-.73-1.81-1.1-3.02-1.1ZM22.33,26.91c-2,0-3.74-.44-5.23-1.33s-2.65-2.08-3.47-3.59c-.83-1.51-1.24-3.19-1.24-5.02s.41-3.6,1.24-5.08,1.95-2.65,3.38-3.51c1.43-.86,3.03-1.29,4.8-1.29,1.98,0,3.65.42,5.02,1.27,1.37.85,2.42,1.97,3.14,3.37.72,1.4,1.08,2.94,1.08,4.64,0,.35-.02.69-.05,1.03-.03.34-.1.63-.19.89h-13.67c.12,1.4.65,2.51,1.59,3.35s2.15,1.26,3.61,1.26h6.87v4.01h-6.87ZM0,26.5V7.52h10.64v4.08h-6.07v14.9s-4.57,0-4.57,0Z"/>
    </g>
  </g>
  <g id="Layer_3" data-name="Layer 3">
    <g>
      <path class="cls-2" d="M123.92,26.91c-1.87,0-3.56-.43-5.09-1.29-1.53-.86-2.74-2.04-3.64-3.54-.9-1.49-1.35-3.2-1.35-5.11s.45-3.62,1.35-5.11c.9-1.49,2.11-2.67,3.62-3.54,1.52-.86,3.22-1.29,5.11-1.29s3.52.43,5.04,1.29c1.52.86,2.73,2.04,3.64,3.54s1.37,3.2,1.37,5.11-.46,3.62-1.37,5.13-2.12,2.68-3.64,3.54c-1.52.85-3.2,1.28-5.04,1.28ZM123.92,22.72c1,0,1.9-.25,2.69-.74s1.42-1.17,1.87-2.03.68-1.85.68-2.97-.23-2.08-.68-2.94-1.08-1.55-1.87-2.05c-.79-.5-1.69-.75-2.69-.75s-1.97.25-2.77.75c-.79.5-1.42,1.18-1.87,2.05s-.68,1.84-.68,2.94.23,2.11.68,2.97,1.08,1.54,1.87,2.03,1.71.74,2.77.74Z"/>
      <path class="cls-2" d="M138.87,33.49V11.48h-2.49v-4.02h6.83v2.21c.68-.82,1.53-1.46,2.57-1.92s2.21-.7,3.52-.7c1.8,0,3.42.44,4.87,1.33,1.45.89,2.6,2.08,3.45,3.57.85,1.49,1.28,3.17,1.28,5.04s-.42,3.55-1.26,5.06-1.98,2.69-3.43,3.57c-1.45.88-3.09,1.31-4.94,1.31-1.14,0-2.22-.19-3.24-.58s-1.87-.94-2.57-1.66v8.82h-4.58ZM148.77,22.72c1.03,0,1.94-.25,2.75-.74s1.44-1.17,1.91-2.03.7-1.85.7-2.97-.23-2.08-.7-2.94-1.1-1.55-1.91-2.05c-.8-.5-1.72-.75-2.75-.75s-1.94.25-2.75.75c-.8.5-1.43,1.18-1.89,2.05s-.68,1.84-.68,2.94.23,2.11.68,2.97,1.08,1.54,1.89,2.03,1.72.74,2.75.74Z"/>
      <path class="cls-2" d="M171.56,26.91c-2.01,0-3.76-.44-5.27-1.33-1.5-.89-2.67-2.08-3.48-3.59s-1.22-3.19-1.22-5.06.41-3.58,1.24-5.07,1.95-2.67,3.38-3.54c1.42-.86,3.03-1.29,4.83-1.29,1.96,0,3.63.43,5,1.28,1.38.85,2.43,1.98,3.17,3.38.74,1.4,1.1,2.95,1.1,4.66,0,.35-.02.69-.05,1.03-.03.34-.1.64-.19.89h-13.72c.14,1.42.68,2.55,1.61,3.38.93.83,2.13,1.24,3.6,1.24h6.9v4.02h-6.9ZM171.03,10.81c-1.14,0-2.13.34-2.96,1.03-.83.69-1.37,1.66-1.63,2.92h8.96c-.09-1.17-.54-2.12-1.35-2.85-.81-.73-1.81-1.1-3.03-1.1Z"/>
      <path class="cls-2" d="M183.77,26.49V7.46h16.87v19.04h-4.58v-14.94h-7.7v14.94h-4.58Z"/>
      <path class="cls-2" d="M214.08,26.91c-1.91,0-3.62-.44-5.11-1.31-1.49-.88-2.67-2.06-3.54-3.57s-1.29-3.2-1.29-5.09.43-3.58,1.29-5.06c.86-1.48,2.04-2.66,3.54-3.54,1.49-.88,3.2-1.31,5.11-1.31,1.35,0,2.61.24,3.78.72,1.17.48,2.17,1.14,3.01,1.98.84.84,1.46,1.82,1.86,2.94l-4.03,1.75c-.35-.96-.94-1.73-1.77-2.31-.83-.58-1.78-.88-2.85-.88-1,0-1.9.25-2.68.75-.78.5-1.39,1.18-1.84,2.03-.44.85-.67,1.84-.67,2.96s.22,2.11.67,2.97,1.06,1.54,1.84,2.03c.78.49,1.67.74,2.68.74,1.1,0,2.05-.29,2.85-.86.81-.57,1.39-1.36,1.77-2.36l4.03,1.82c-.37,1.1-.98,2.06-1.82,2.91-.84.84-1.84,1.5-3.01,1.98-1.17.48-2.44.72-3.82.72Z"/>
      <path class="cls-2" d="M226.19,26.49V0h4.58v26.49h-4.58Z"/>
      <path class="cls-2" d="M244.32,26.91c-1.87,0-3.56-.43-5.09-1.29-1.53-.86-2.74-2.04-3.64-3.54-.9-1.49-1.35-3.2-1.35-5.11s.45-3.62,1.35-5.11c.9-1.49,2.11-2.67,3.62-3.54,1.52-.86,3.22-1.29,5.11-1.29s3.52.43,5.04,1.29c1.52.86,2.73,2.04,3.64,3.54s1.37,3.2,1.37,5.11-.46,3.62-1.37,5.13-2.12,2.68-3.64,3.54c-1.52.85-3.2,1.28-5.04,1.28ZM244.32,22.72c1,0,1.9-.25,2.69-.74s1.42-1.17,1.87-2.03.68-1.85.68-2.97-.23-2.08-.68-2.94-1.08-1.55-1.87-2.05c-.79-.5-1.69-.75-2.69-.75s-1.97.25-2.77.75c-.79.5-1.42,1.18-1.87,2.05s-.68,1.84-.68,2.94.23,2.11.68,2.97,1.08,1.54,1.87,2.03,1.71.74,2.77.74Z"/>
      <path class="cls-2" d="M257.45,26.49V7.46h4.58v14.98h7.7V7.46h4.58v19.04h-16.87Z"/>
      <path class="cls-2" d="M287.44,26.91c-1.84,0-3.5-.44-4.95-1.31s-2.6-2.06-3.43-3.57-1.24-3.19-1.24-5.06.42-3.55,1.26-5.04c.84-1.49,1.98-2.68,3.43-3.57,1.45-.89,3.08-1.33,4.9-1.33,1.21,0,2.32.2,3.31.61.99.41,1.84.99,2.54,1.73V0h4.58v26.49h-4.34v-2.13c-.68.84-1.55,1.48-2.61,1.91-1.06.43-2.21.65-3.45.65ZM287.93,22.72c1.03,0,1.94-.25,2.75-.74s1.43-1.17,1.89-2.03.68-1.85.68-2.97-.23-2.08-.68-2.94-1.08-1.55-1.89-2.05c-.8-.5-1.72-.75-2.75-.75s-1.95.25-2.77.75c-.82.5-1.45,1.18-1.91,2.05s-.68,1.84-.68,2.94.23,2.11.68,2.97,1.09,1.54,1.91,2.03,1.74.74,2.77.74Z"/>
    </g>
  </g>
</svg>